# xmcd
#
# Track frame offsets:
#	150
#	11565
#	25763
#	37301
#	53968
#	76446
#	91933
#	107099
#	125207
#	135204
#	145809
#	162741
#
# Disc length: 2431 seconds
# Revision: 1
# Processed by: cddbd v1.5.2PL0 Copyright (c) Steve Scherf et al.
# Submitted via: dBpowerAMP V12.0
#
DISCID=a3097d0c
DTITLE=River Boy - Acoustic, Bluegrassy Music
DYEAR=2010
DGENRE=Bluegrass
TTITLE0=Caroline
TTITLE1=Rice Fields
TTITLE2=Runnin' 'Round on Me
TTITLE3=Cameron Grace
TTITLE4=Proudest Cowboy
TTITLE5=Harlan, KY
TTITLE6=Another Night
TTITLE7=River Boy
TTITLE8=Gold Diggers
TTITLE9=Walkin'
TTITLE10=Christ My Savior
TTITLE11=Summer Wages
EXTD=
EXTT0=
EXTT1=
EXTT2=
EXTT3=
EXTT4=
EXTT5=
EXTT6=
EXTT7=
EXTT8=
EXTT9=
EXTT10=
EXTT11=
PLAYORDER=
